<?xml version="1.0" encoding="utf-8"?>
<!-- Generator: Adobe Illustrator 27.5.0, SVG Export Plug-In . SVG Version: 6.00 Build 0)  -->
<svg version="1.1" xmlns="http://www.w3.org/2000/svg" xmlns:xlink="http://www.w3.org/1999/xlink" x="0px" y="0px"
	 viewBox="0 0 500 500" style="enable-background:new 0 0 500 500;" xml:space="preserve">
<g id="Background">
</g>
<g id="Objects">
	<g>
		<g>
			<path style="fill:#8DC63F;" d="M448.765,162.22c-0.078-0.611-0.208-1.243-0.586-1.729c-0.943-1.211-2.859-0.933-4.236-0.255
				c-2.297,1.131-4.192,3.06-5.281,5.378c0.153-2.857,0.096-5.726-0.172-8.575c-0.063-0.666-0.146-1.359-0.511-1.92
				c-1.294-1.99-4.369-0.697-6.25,0.751c0.373-6.445,0.746-12.89,1.118-19.334c0.206-3.562,0.291-7.51-2.009-10.237
				c-0.918-1.089-2.292-1.917-3.707-1.756c-2.527,0.288-3.694,3.335-3.758,5.878c-0.064,2.543,0.365,5.321-1.05,7.435
				c-1.08,1.612-3.071,2.52-3.902,4.274c-1.701,3.59,2.39,8.354,0.039,11.556c-2.523-1.366-6.407-2.346-7.637,0.246
				c-0.61,1.285-0.11,2.798,0.394,4.128c0.634,1.676,1.269,3.352,1.904,5.027c0.394,1.042,0.793,2.18,0.46,3.243
				c-0.365,1.163-1.499,1.897-2.15,2.928c-0.822,1.302-0.803,2.958-0.6,4.484c0.858,6.445,4.669,12.436,10.142,15.945
				c3.428,2.198,9.092,4.578,13.282,3.953c3.826-0.571,3.874-2.882,4.977-6.134C442.064,179.152,449.96,171.618,448.765,162.22z"/>
			<path style="fill:#31354F;" d="M410.989,182.212h32.265c0,0,1.773,38.095-16.132,38.804
				C427.122,221.015,410.989,221.015,410.989,182.212z"/>
		</g>
		<g>
			<path style="fill:#7298E2;" d="M307.559,88.557c2.172-2.215,5.729-2.251,7.946-0.077l14.318,14.04l16.57-14.284
				c3.348,6.137,7.339,8.513,7.339,8.513l-20.485,17.658c-1.058,0.911-2.364,1.363-3.669,1.363c-1.424,0-2.846-0.539-3.935-1.607
				l-18.007-17.658C305.421,94.331,305.386,90.773,307.559,88.557z"/>
			<path style="fill:#6387C1;" d="M307.559,88.557c2.172-2.215,5.729-2.251,7.946-0.077l9.699,9.511
				c-0.961,3.547-2.02,8.701-1.895,13.882l-15.673-15.369C305.421,94.331,305.386,90.773,307.559,88.557z"/>
			<path style="fill:#171E26;" d="M316.983,131.799c0,0,12.673,57.372,9.017,86.195c0,0-8.936,3.391-15.842,0
				c0,0-1.7-56.261-10.636-74.015l-8.049,73.167c0,0-4.736,4.238-14.891-0.849l7.448-87.758L316.983,131.799z"/>
			<path style="fill:#45596D;" d="M284.463,208.571c0.068,0,0.125-0.051,0.132-0.119l6.425-66.879
				c0.007-0.073-0.046-0.138-0.119-0.144c-0.076-0.007-0.137,0.046-0.144,0.119l-6.425,66.879c-0.007,0.073,0.047,0.138,0.119,0.144
				C284.455,208.571,284.459,208.571,284.463,208.571z"/>
			<path style="fill:#45596D;" d="M318.985,210.234c0.072,0,0.131-0.057,0.132-0.129c0.513-25.686-7.25-67.482-7.329-67.902
				c-0.013-0.072-0.079-0.126-0.154-0.106c-0.072,0.013-0.119,0.083-0.106,0.154c0.078,0.419,7.837,42.189,7.324,67.848
				c-0.001,0.073,0.057,0.133,0.129,0.135C318.983,210.234,318.984,210.234,318.985,210.234z"/>
			<path style="fill:#45596D;" d="M299.523,144.165c0.01,0,0.019-0.001,0.029-0.002l0.936-0.147c0.061-0.01,0.114-0.05,0.141-0.106
				c1.802-3.856,1.979-9.197,1.98-9.25c0.003-0.104-0.078-0.19-0.181-0.193c-0.12,0.011-0.19,0.078-0.193,0.181
				c-0.002,0.053-0.174,5.234-1.903,9.012l-0.596,0.094c0.123-1.213,0.62-6.501,0.21-9.13c-0.017-0.102-0.117-0.166-0.214-0.156
				c-0.102,0.016-0.172,0.112-0.156,0.214c0.448,2.868-0.23,9.211-0.238,9.275c-0.006,0.058,0.015,0.115,0.058,0.156
				C299.429,144.147,299.475,144.165,299.523,144.165z"/>
			<path style="fill:#7298E2;" d="M319.721,96.368l-2.738,35.431c0,0-8.001,4.357-19.294,3.044
				c-11.293-1.313-13.767-6.303-13.767-6.303s1.951-34.765,2.279-35.109c0.328-0.344,1.664-11.768,18.004-9.434
				C320.546,86.329,319.721,96.368,319.721,96.368z"/>
			<g>
				<polygon style="fill:#EEB399;" points="300.43,74.047 300.43,83.878 304.96,88.002 309.359,85.321 309.359,79.409 				"/>
			</g>
			<path style="fill:#CC957F;" d="M301.658,79.005l7.702,2.551v3.147C305.062,84.129,301.658,79.005,301.658,79.005z"/>
			<path style="fill:#171E26;" d="M324.797,217.12l3.395,2.881c0,0-9.774,2.058-18.416,0.514l0.926-4.218L324.797,217.12z"/>
			<path style="fill:#171E26;" d="M290.948,216.605l3.395,2.881c0,0-9.774,2.058-18.416,0.514l0.926-4.218L290.948,216.605z"/>
			<path style="fill:#EEB399;" d="M306.744,83.009h4.061c3.472,0,6.313-2.841,6.313-6.313V65.463c0-3.472-2.841-6.313-6.313-6.313
				h-4.061c-3.472,0-6.313,2.841-6.313,6.313v11.233C300.43,80.168,303.271,83.009,306.744,83.009z"/>
			<path style="fill:#45596D;" d="M295.509,145.608c0.038,0,0.076-0.011,0.108-0.034c3.123-2.21,9.709-1.67,9.775-1.664
				c0.105,0.016,0.194-0.068,0.203-0.17c0.009-0.103-0.067-0.194-0.17-0.203c-0.275-0.025-6.789-0.559-10.024,1.731
				c-0.085,0.06-0.104,0.177-0.044,0.261C295.393,145.581,295.45,145.608,295.509,145.608z"/>
			<path style="fill:#45596D;" d="M316.179,214.782c5.192,0,10.228-1.179,10.299-1.196c0.101-0.024,0.163-0.124,0.139-0.225
				c-0.023-0.101-0.126-0.165-0.225-0.139c-0.099,0.023-10.084,2.359-16.341,0.414c-0.099-0.032-0.204,0.025-0.234,0.123
				c-0.031,0.099,0.025,0.203,0.123,0.234C311.811,214.576,314.009,214.782,316.179,214.782z"/>
			<path style="fill:#45596D;" d="M284.448,213.693c4.149,0,7.538-1.004,7.591-1.02c0.099-0.03,0.155-0.135,0.125-0.234
				c-0.03-0.099-0.134-0.154-0.234-0.125c-0.085,0.026-8.456,2.501-14.913-0.412c-0.092-0.043-0.205-0.001-0.248,0.094
				c-0.043,0.094-0.001,0.205,0.094,0.248C279.305,213.346,282.008,213.693,284.448,213.693z"/>
			<path style="fill:#EEB399;" d="M351.186,84.485c0.38-0.26,0.789-0.519,1.249-0.55c0.46-0.031,0.974,0.25,1.038,0.706
				c0.098,0.7-0.801,1.104-1.077,1.755c-0.207,0.488-0.025,1.064,0.287,1.493c0.312,0.429,0.741,0.755,1.111,1.135
				c1.774,1.822,1.933,4.984,0.35,6.975c-0.298,0.375-0.684,0.727-1.159,0.787c-0.6,0.075-1.144-0.329-1.614-0.711
				c-1.262-1.024-2.535-2.061-3.534-3.343c-0.9-1.155-2.236-3.208-1.149-4.524C347.871,86.774,349.661,85.526,351.186,84.485z"/>
			<path style="fill:#77625C;" d="M352.153,88.133l-0.375-0.714c0,0,0.373-1.306-0.651-1.331c0,0,1.062-1.019,0.85-1.346
				c-0.212-0.327-2.726,0.633-3.666,1.962c0,0,1.586-0.736,2.228-0.47c0.642,0.266,1.828,0.46,0.776,1.696l0.164,0.368l0.674-0.003"
				/>
			<path style="fill:#B57359;" d="M351.679,94.803c0.101,0,0.208-0.011,0.321-0.033c0.101-0.019,0.168-0.117,0.148-0.219
				c-0.02-0.102-0.116-0.17-0.219-0.148c-0.311,0.06-0.543,0.015-0.692-0.132c-0.296-0.288-0.263-0.938-0.226-1.164
				c0.008-0.052-0.004-0.104-0.036-0.145c-0.032-0.041-0.079-0.067-0.131-0.072c-0.429-0.04-0.707-0.169-0.825-0.384
				c-0.181-0.328,0.046-0.781,0.048-0.786c0.033-0.064,0.026-0.141-0.017-0.198c-0.043-0.057-0.115-0.084-0.186-0.071
				c-0.308,0.063-0.541,0.037-0.691-0.077c-0.164-0.123-0.181-0.315-0.183-0.323c-0.226-1.868,3.665-2.913,3.704-2.923
				c0.1-0.026,0.159-0.129,0.134-0.229c-0.027-0.1-0.125-0.158-0.229-0.134c-0.174,0.046-4.246,1.141-3.981,3.322
				c0,0.004,0.025,0.352,0.323,0.581c0.176,0.135,0.4,0.197,0.681,0.189c-0.058,0.227-0.088,0.544,0.068,0.828
				c0.16,0.292,0.472,0.478,0.93,0.554c-0.023,0.316-0.014,0.94,0.354,1.3C351.155,94.714,351.391,94.803,351.679,94.803z"/>
			<path style="fill:#B57359;" d="M349.9,91.82c0.035,0,0.072-0.01,0.103-0.031c0.03-0.02,3.037-2.01,4.098-2.295
				c0.1-0.027,0.159-0.129,0.132-0.229c-0.026-0.101-0.132-0.161-0.229-0.132c-1.12,0.3-4.082,2.261-4.208,2.344
				c-0.086,0.057-0.11,0.174-0.052,0.259C349.78,91.791,349.84,91.82,349.9,91.82z"/>
			<path style="fill:#B57359;" d="M350.826,93.261c0.034,0,0.069-0.009,0.1-0.029c0.03-0.019,3.05-1.926,4.046-2.156
				c0.101-0.023,0.163-0.124,0.14-0.225c-0.023-0.1-0.121-0.163-0.225-0.14c-1.057,0.245-4.035,2.125-4.161,2.205
				c-0.088,0.055-0.113,0.171-0.058,0.258C350.704,93.231,350.764,93.261,350.826,93.261z"/>
			<path style="fill:#B57359;" d="M351.965,94.773c0.044,0,0.088-0.015,0.123-0.046c0.015-0.014,1.585-1.369,3.192-1.901
				c0.098-0.033,0.152-0.139,0.119-0.237c-0.034-0.098-0.14-0.15-0.237-0.119c-1.68,0.557-3.254,1.917-3.321,1.975
				c-0.077,0.068-0.086,0.187-0.018,0.265C351.86,94.751,351.913,94.773,351.965,94.773z"/>
			<path style="fill:#B57359;" d="M348.965,90.236c0.063,0,0.124-0.032,0.159-0.088c0.14-0.227,0.172-0.519,0.085-0.77
				c0.533-0.191,0.992-0.366,1.423-0.619c0.534-0.314,0.928-0.7,1.17-1.146c0.132-0.241,0.186-0.458,0.166-0.663
				c-0.033-0.333-0.285-0.645-0.643-0.796c-0.317-0.132-0.654-0.132-0.944-0.115c-0.866,0.052-1.703,0.288-2.421,0.685
				c-0.09,0.05-0.123,0.164-0.073,0.255c0.05,0.09,0.164,0.123,0.255,0.073c0.669-0.37,1.45-0.591,2.26-0.639
				c0.247-0.017,0.532-0.017,0.777,0.086c0.232,0.098,0.396,0.289,0.415,0.487c0.013,0.127-0.027,0.274-0.122,0.447
				c-0.209,0.386-0.556,0.723-1.031,1.002c-0.419,0.246-0.88,0.418-1.395,0.6c-0.054,0.02-0.163,0.06-0.212,0.175
				c-0.047,0.108-0.009,0.21,0.012,0.264c0.061,0.159,0.043,0.338-0.041,0.474c-0.054,0.088-0.027,0.204,0.061,0.258
				C348.897,90.227,348.931,90.236,348.965,90.236z"/>
			<path style="fill:#171E26;" d="M318.204,61.602c0.428,0.486,0.765,1.177,0.499,1.768c-0.138,0.307-0.417,0.527-0.709,0.696
				c-1.022,0.59-2.329,0.659-3.408,0.179c0.336,0.326,0.299,0.912,0.012,1.282c-0.287,0.37-0.756,0.553-1.218,0.627
				c-1.447,0.231-2.912-0.472-3.973-1.483c0.04,0.919-0.767,1.789-1.686,1.818c-0.83,0.026-1.631-0.536-2.443-0.361
				c-0.238,0.401,0.139,1.057-0.243,1.323c-0.093,0.065-0.21,0.083-0.323,0.094c-0.77,0.074-1.689-0.064-2.186,0.528
				c-0.48,0.572-0.222,1.425-0.024,2.144c0.181,0.657,0.28,1.405-0.078,1.985c-0.358,0.58-1.341,0.765-1.698,0.183
				c-0.101-0.165-0.138-0.363-0.245-0.524c-0.107-0.161-0.336-0.274-0.492-0.16c-0.116,0.084-0.134,0.249-0.128,0.392
				c0.039,0.859,0.569,1.607,0.868,2.414c0.299,0.807,0.266,1.9-0.49,2.311c-0.226,0.123-0.486,0.165-0.741,0.198
				c-0.802,0.106-1.689,0.129-2.338-0.355c-0.619-0.462-0.86-1.263-1.063-2.008c-0.079-0.29-0.159-0.591-0.115-0.888
				c0.044-0.298,0.247-0.593,0.543-0.647c0.355-0.992-0.72-2.224-0.082-3.063c0.14-0.185,0.344-0.309,0.519-0.46
				c0.511-0.442,0.771-1.116,0.865-1.786c0.094-0.669,0.04-1.349,0.028-2.025c-0.023-1.313,0.112-2.629,0.401-3.911
				c0.119-0.528,0.272-1.065,0.597-1.498c0.325-0.433,0.858-0.747,1.395-0.672c0.235-0.981,0.754-1.934,1.603-2.478
				c0.849-0.544,2.058-0.583,2.82,0.078c0.17,0.147,0.33,0.332,0.551,0.371c0.176,0.031,0.353-0.039,0.518-0.106
				c1.551-0.63,3.347-1.162,4.849-0.423c0.225,0.111,0.445,0.251,0.695,0.281c0.253,0.031,0.503-0.055,0.749-0.119
				c0.59-0.154,1.268-0.172,1.756,0.193c0.544,0.408,0.307,0.856,0.352,1.395c0.051,0.612,0.391,0.575,0.972,0.793
				C316.256,60.116,317.386,60.674,318.204,61.602z"/>
			<path style="fill:#EEB399;" d="M297.714,72.915c0,1.13,0.916,2.045,2.045,2.045c1.13,0,2.045-0.916,2.045-2.045
				s-0.916-2.045-2.045-2.045C298.63,70.87,297.714,71.786,297.714,72.915z"/>
			<path style="fill:#171E26;" d="M303.614,76.871c0.071,0.449,0.145,0.908,0.36,1.309c0.196,0.366,0.498,0.663,0.811,0.935
				c0.432,0.375,0.897,0.716,1.41,0.967c0.515,0.253,1.072,0.412,1.633,0.529c2.572,0.537,5.655,0.272,7.934-1.12
				c0.39-0.238,0.684-0.529,1.037-0.82c0.421,0.568,0.595,1.281,0.68,1.961c0.063,0.501,0.258,1.112-0.246,1.475
				c-0.313,0.226-0.74,0.154-1.126,0.169c-0.056,0.002-0.116,0.007-0.163,0.038c-0.071,0.045-0.098,0.133-0.124,0.213
				c-0.222,0.677-0.758,1.244-1.422,1.504c-0.664,0.26-1.442,0.208-2.065-0.137c-0.114-0.063-0.232-0.138-0.362-0.127
				c-0.073,0.006-0.142,0.039-0.208,0.072c-0.512,0.255-1.045,0.516-1.617,0.531s-1.195-0.293-1.353-0.842
				c-0.794,0.11-1.594,0.183-2.395,0.216c-0.251,0.01-0.51,0.016-0.743-0.078c-0.447-0.181-0.687-0.754-0.503-1.199
				c-1.421-0.178-2.586-1.554-2.528-2.985c0.014-0.336,0.086-0.668,0.087-1.005c0.002-0.511-0.158-1.007-0.262-1.507
				c-0.161-0.774-0.188-1.57-0.193-2.361c-0.003-0.427,0-0.858-0.103-1.272c-0.11-0.441-0.336-0.847-0.45-1.287
				c-0.103-0.399-0.107-1.405,0.513-1.429c0.603-0.023,0.599,1.197,0.66,1.581C303.123,73.759,303.369,75.315,303.614,76.871z"/>
			<path style="fill:#997F76;" d="M294.322,92.461c0,0,13.497-1.585,22.796,1.156c0,0,0.372,9.354,1.68,14.709
				c0,0,3.883,47.385,6.288,72.633c0,0-17.364,4.588-45.55,0.549l5.51-72.132C285.045,109.375,294.993,101.59,294.322,92.461z"/>

				<path style="fill:none;stroke:#846C66;stroke-width:0.2835;stroke-linecap:round;stroke-linejoin:round;stroke-miterlimit:10;stroke-dasharray:2.8347;" d="
				M286,110.5c0,0,9.788-7.013,13.306-15.727l14.836,0.03c0,0,0.269,8.745,3.427,12.697"/>
			<path style="fill:#846C66;" d="M297.119,127.855h23.179c0,0,4.022,16.952-11.589,17.38
				C308.709,145.235,294.808,145.223,297.119,127.855z"/>
			<path style="fill:#BCBEC0;" d="M287.265,95.108l6.199,20.661c0,0-0.292,0.972,5.871,4.704
				c6.163,3.732,21.428,11.435,21.428,11.435l-0.488-4.504L287.265,95.108z"/>
			<path style="fill:#997F76;" d="M294.322,92.461c0,0,0.046-5.013-0.553-7.758c0,0,1.105-0.721,2.203-0.77
				c0,0,1.192,4.832,1.044,8.528H294.322z"/>
			<path style="fill:#997F76;" d="M317.118,93.617c0,0-0.426-3.159-1.02-4.858c0,0-0.877-1.319-1.956-1.472
				c0,0,0.495,4.111,0.485,5.714C314.627,93.001,316.291,93.665,317.118,93.617z"/>
			<g>
				<g>

						<rect x="324.318" y="110.237" transform="matrix(0.9176 0.3975 -0.3975 0.9176 75.1352 -119.4376)" style="fill:#77625C;" width="2.75" height="22.594"/>
					<path style="fill:#171E26;" d="M322.695,108.841c0,0-2.915,2.3-2.967,6.85l14.033,6.078l2.967-6.85L322.695,108.841z"/>
					<path style="fill:#29323A;" d="M336.353,118.824c-0.819,1.891-1.98,3.21-2.592,2.945c-0.612-0.265-0.445-2.014,0.375-3.905
						c0.819-1.891,1.98-3.21,2.592-2.945C337.34,115.184,337.172,116.932,336.353,118.824z"/>
				</g>
				<path style="fill:#EEB399;" d="M321.637,130.829c0.615,0.314,1.264,0.632,1.955,0.621c0.691-0.011,1.427-0.467,1.507-1.153
					c0.042-0.356-0.088-0.751,0.098-1.057c0.234-0.386,0.786-0.371,1.208-0.532c0.773-0.297,1.105-1.291,0.872-2.087
					c-0.077-0.263-0.203-0.539-0.117-0.799c0.192-0.576,1.198-0.513,1.38-1.092c0.139-0.444-0.342-0.903-0.214-1.35
					c0.069-0.242,0.298-0.402,0.423-0.621c0.209-0.368,0.083-0.852-0.188-1.177c-0.271-0.325-0.658-0.526-1.035-0.718
					c-0.592-0.303-1.185-0.605-1.777-0.908c-0.349-0.178-0.71-0.36-1.1-0.396c-0.841-0.077-1.58,0.524-2.185,1.114
					c-1.158,1.13-2.233,2.379-2.915,3.846c-0.557,1.196-0.884,2.632-0.637,3.948C319.138,129.669,320.635,130.317,321.637,130.829z"
					/>
				<path style="fill:#7298E2;" d="M319.802,129.635l-21.319-11.072c-1.169-0.607-2.087-1.606-2.595-2.821l-8.622-20.633
					c-1.196-2.863,0.156-6.154,3.019-7.352c2.864-1.196,6.155,0.155,7.352,3.019l7.836,18.752l19.51,10.133
					C324.982,119.66,321.799,123.297,319.802,129.635z"/>
			</g>
			<path style="fill:#77625C;" d="M352.246,94.362c0,0,2.48,4.029,4.411,5.41c0,0,0.4,0.017,0.749-0.449c0,0-2.014-5.443-2.58-6.509
				C354.826,92.814,352.762,93.713,352.246,94.362z"/>
			<g>
				<g>
					<path style="fill:none;stroke:#846C66;stroke-width:0.2835;stroke-linecap:round;stroke-linejoin:round;" d="M280.532,178.63
						c0,0,0.49,0.101,1.389,0.258"/>

						<path style="fill:none;stroke:#846C66;stroke-width:0.2835;stroke-linecap:round;stroke-linejoin:round;stroke-dasharray:2.6835,2.6835;" d="
						M284.567,179.313c7.011,1.041,22.04,2.631,36.073-0.099"/>
					<path style="fill:none;stroke:#846C66;stroke-width:0.2835;stroke-linecap:round;stroke-linejoin:round;" d="M321.961,178.943
						c0.462-0.1,0.923-0.204,1.382-0.313"/>
				</g>
			</g>
		</g>
		<g>
			<path style="fill:#B3D3DB;" d="M411.235,128.201c2.048-3.373,0.863-7.76-0.896-11.293c-1.759-3.533-4.092-6.992-4.259-10.935
				c-0.148-3.503,1.447-6.805,2.453-10.163s1.3-7.378-1.017-10.009c-0.967-1.097-2.337-1.915-3.666-2.723l-3.267-18.038
				c-0.194-1.071-0.758-2.04-1.593-2.737l-14.185-11.843c-0.053-0.045-0.114-0.073-0.169-0.115
				c-1.653-1.833-4.483-3.488-9.363-3.414v-6.878v-0.345c0.894-0.044,1.607-0.777,1.607-1.682c0-0.905-0.713-1.638-1.607-1.682
				v-3.38c0-3.472-2.841-6.313-6.313-6.313h-1.163c-3.472,0-6.313,2.841-6.313,6.313v7.089c0,3.472,2.841,6.313,6.313,6.313h0.098
				v1.758c-3.845,1.208-5.969,3.053-7.139,4.783l-9.771,9.581l-13.693-11.803c-0.038,0.07-0.077,0.133-0.115,0.201
				c-0.042-0.075-0.07-0.154-0.128-0.224c-0.977-1.185-2.457-2.216-3.717-3.076c-0.314-0.215-0.652-0.429-1.032-0.455
				c-0.38-0.026-0.805,0.207-0.858,0.584c-0.081,0.578,0.662,0.912,0.89,1.45c0.171,0.403,0.021,0.88-0.237,1.234
				c-0.258,0.354-0.613,0.624-0.918,0.938c-1.466,1.506-1.597,4.119-0.289,5.764c0.151,0.19,0.333,0.366,0.539,0.49
				c-0.124,0.084-0.198,0.129-0.198,0.129l16.927,14.591c0.874,0.753,1.954,1.126,3.031,1.126c1.177,0,2.352-0.446,3.252-1.328
				l5.605-5.496l1.341,17.349c-0.268,0.17-0.534,0.343-0.788,0.531c-4.402,3.265-4.621,9.59-5.675,14.968
				c-1.104,5.631-3.567,10.99-7.121,15.495c-1.153,1.461-2.778,2.965-4.606,2.618c3.553,5.53-5.909,11.74-4.796,18.219
				c0.872,5.072,8.052,8.725,6.13,13.5c-0.338,0.84-0.949,1.566-1.162,2.446c-0.249,1.032,0.085,2.105,0.417,3.113
				c2.303,7.009,4.507,13.662,5.465,20.777c0.845,6.276,3.597,7.755,10.532,7.077c13.985-1.367,27.97-2.734,41.954-4.101
				c-1.917-10.123-3.438-21.846,3.328-29.616c1.581-1.816,3.623-3.429,4.225-5.76c0.957-3.703-2.12-7.75-0.65-11.28
				C409.223,130.542,410.443,129.504,411.235,128.201z"/>
			<path style="fill:#87AAAF;" d="M405.06,148.989c1.581-1.816,3.623-3.429,4.225-5.76c0.957-3.703-2.12-7.75-0.65-11.28
				c0.586-1.407,1.807-2.445,2.598-3.747c2.048-3.373,0.863-7.76-0.896-11.293c-1.759-3.533-4.092-6.992-4.259-10.935
				c-0.148-3.503,1.447-6.805,2.453-10.163s1.3-7.378-1.017-10.009c-0.967-1.097-2.337-1.915-3.666-2.723l-3.267-18.038
				c-0.194-1.071-0.758-2.04-1.593-2.737l-4.848-4.048c0.899,2.513,1.925,5.432,2.192,6.411c0.5,1.833,1.5,19.706,1.5,19.706
				s8.167,10.183-3.5,16.988c0,0,8.394,2.322,4.447,12.147c0,0,10.553,14.207-7.447,17.349c0,0,12.5,3.161,6.5,11.235
				c0,0,1.999,10.838-10.167,12.074c0,0,2.625,15.696-8.816,26.675c7.627-0.745,15.254-1.491,22.881-2.237
				C399.815,168.482,398.294,156.76,405.06,148.989z"/>
			<path style="fill:#97B9C1;" d="M347.81,157.231c0.75,1.631,1.5,3.263,2.25,4.894c0.131,0.285,0.28,0.591,0.559,0.737
				c0.228,0.12,0.499,0.11,0.756,0.097c3.889-0.199,7.778-0.397,11.667-0.596c0.162-0.008,0.333-0.02,0.464-0.116
				c0.151-0.111,0.21-0.305,0.26-0.486c0.188-0.687,0.377-1.374,0.565-2.061c0.105-0.384,0.22-0.786,0.495-1.074
				c0.461-0.484,1.21-0.504,1.878-0.528c4.024-0.148,7.982-1.701,11.033-4.328c3.051-2.627,5.175-6.311,5.919-10.268
				c-4.422,2.038-9.298,3.082-14.167,3.032c-1.572-0.016-3.248-0.184-4.479-1.161c-0.232-0.184-0.461-0.403-0.754-0.45
				c-0.349-0.056-0.681,0.147-0.981,0.333c-1.833,1.137-3.875,1.921-5.988,2.348c-3.732,0.753-7.699,0.4-11.219-1.06
				c-0.549-0.228-1.093-0.551-1.621-0.781c0.457,1.131,0.577,2.293,0.079,3.531c-0.338,0.84-0.949,1.566-1.162,2.446
				c-0.005,0.022-0.003,0.044-0.007,0.066c0.781,0.31,1.5,0.821,2.075,1.437C346.493,154.379,347.161,155.818,347.81,157.231z"/>
			<rect x="365.054" y="173.293" style="fill:#97B9C1;" width="51.193" height="51.193"/>
			<rect x="329.906" y="173.293" style="fill:#B3D3DB;" width="51.193" height="51.193"/>
			<path style="fill:#97B9C1;" d="M371.28,88.393c0.579,1.837,2.107,3.273,3.861,4.068c1.754,0.795,3.72,1.01,5.645,0.987
				c-0.807,1.773-1.621,3.569-1.975,5.484c-0.354,1.916-0.205,3.995,0.816,5.655c0.434,0.705,1.012,1.317,1.408,2.043
				c-1.796,0.653-3.554,1.409-5.264,2.261c-2.361,1.177-4.844,2.821-5.41,5.398c-3.809-3.496-9.198-5.199-14.325-4.526
				c2.155-0.721,3.683-2.609,4.98-4.475c1.728-2.487,3.316-5.232,3.514-8.254c0.02-0.3,0.021-0.62-0.133-0.878
				c-0.146-0.244-0.408-0.394-0.668-0.51c-1.694-0.761-3.794-0.527-5.278,0.59c1.124-0.846,2.137-1.483,2.906-2.721
				c0.38-0.612,0.56-1.262,0.851-1.907c0.37-0.824,0.318-0.709,1.259-0.601C366.297,91.333,369.241,90.408,371.28,88.393z"/>
			<path style="fill:#97B9C1;" d="M378.51,221.415h-46.279v-44.989h46.279V221.415z M333.231,220.415h44.279v-42.989h-44.279
				V220.415z"/>
			<path style="fill:#83A0A5;" d="M414.405,221.415h-31.249v-44.989h31.249V221.415z M384.156,220.415h29.249v-42.989h-29.249
				V220.415z"/>
			<path style="fill:#97B9C1;" d="M383.157,60.44c0,0,3.573,11.281,5.515,19.321c-0.319-5.543-0.885-15.192-1.272-20.674
				L383.157,60.44z"/>
			<path style="fill:#97B9C1;" d="M368.967,25.11c-0.722-0.031-1.444,0.385-1.779,1.025c-1.036-0.504-2.342-0.989-3.261-0.294
				c-0.104,0.079-0.205,0.174-0.333,0.2c-0.086,0.018-0.174,0.003-0.26-0.013c-0.897-0.161-1.811-0.366-2.709-0.213
				s-1.791,0.767-1.949,1.665c-0.08,0.458,0.039,0.932,0.246,1.348c0.865,1.739,3.161,2.393,5.035,1.884
				c-0.226,0.445,0.034,1.017,0.453,1.287c0.419,0.27,0.946,0.304,1.445,0.283c1.268-0.051,2.523-0.404,3.633-1.021
				c-0.244,0.731,0.379,1.608,1.149,1.62c0.354,0.005,0.692-0.141,1.043-0.185c0.351-0.044,0.773,0.061,0.907,0.388
				c0.053,0.131,0.052,0.277,0.049,0.418c-0.017,0.996-0.033,1.993-0.05,2.989c-0.006,0.355,0.027,0.783,0.34,0.953
				c0.388,0.211,0.83-0.156,1.115-0.494c0.285-0.338,0.708-0.717,1.108-0.529c0.256,0.121,0.364,0.44,0.333,0.721
				c-0.031,0.281-0.169,0.536-0.29,0.792c-0.353,0.75-0.567,1.565-0.629,2.391c-0.028,0.371-0.007,0.79,0.264,1.045
				c0.462,0.436,1.218,0.067,1.689-0.36c0.889-0.807,1.616-1.831,1.899-2.997c0.283-1.167,0.077-2.482-0.697-3.4
				c-0.135-0.16-0.289-0.313-0.362-0.509c-0.103-0.275-0.029-0.581,0.011-0.872c0.075-0.545,0.022-1.107-0.152-1.629
				c-0.138-0.412-0.352-0.808-0.384-1.241c-0.025-0.345,0.067-0.689,0.068-1.035c0.001-1.114-0.913-1.988-1.766-2.704
				c-0.275-0.231-0.571-0.47-0.927-0.52c-0.356-0.05-0.775,0.176-0.794,0.535c-0.254-0.396-0.514-0.8-0.88-1.096
				c-0.366-0.296-0.863-0.47-1.315-0.338c-0.381,0.112-0.65,0.465-0.687,0.848C370.21,25.506,369.599,25.137,368.967,25.11z"/>
			<path style="fill:#97B9C1;" d="M332.924,56.113c-0.083,0-0.172-0.009-0.266-0.027c-0.084-0.016-0.139-0.097-0.123-0.181
				c0.017-0.084,0.096-0.141,0.181-0.123c0.257,0.05,0.449,0.013,0.572-0.109c0.245-0.238,0.217-0.775,0.187-0.962
				c-0.007-0.043,0.004-0.086,0.03-0.12s0.066-0.056,0.108-0.06c0.355-0.033,0.584-0.14,0.681-0.317
				c0.149-0.271-0.038-0.646-0.039-0.649c-0.027-0.053-0.021-0.117,0.014-0.164c0.036-0.047,0.095-0.07,0.154-0.059
				c0.254,0.052,0.447,0.031,0.571-0.064c0.135-0.101,0.15-0.26,0.151-0.267c0.187-1.543-3.028-2.407-3.061-2.416
				c-0.083-0.022-0.132-0.107-0.11-0.189c0.022-0.083,0.103-0.131,0.189-0.11c0.143,0.038,3.508,0.943,3.29,2.745
				c0,0.003-0.021,0.291-0.267,0.48c-0.146,0.112-0.331,0.163-0.563,0.156c0.048,0.188,0.073,0.45-0.056,0.684
				c-0.132,0.242-0.39,0.395-0.768,0.458c0.019,0.261,0.011,0.777-0.293,1.075C333.357,56.039,333.162,56.113,332.924,56.113z"/>
			<path style="fill:#97B9C1;" d="M334.393,53.648c-0.029,0-0.059-0.008-0.085-0.026c-0.025-0.017-2.509-1.661-3.386-1.896
				c-0.083-0.022-0.132-0.107-0.109-0.189c0.021-0.083,0.109-0.133,0.189-0.109c0.925,0.248,3.373,1.868,3.477,1.937
				c0.071,0.048,0.091,0.144,0.043,0.214C334.493,53.624,334.443,53.648,334.393,53.648z"/>
			<path style="fill:#97B9C1;" d="M333.628,54.839c-0.028,0-0.057-0.007-0.083-0.024c-0.025-0.016-2.521-1.591-3.343-1.782
				c-0.083-0.019-0.135-0.102-0.116-0.186c0.019-0.083,0.1-0.134,0.186-0.116c0.873,0.203,3.334,1.756,3.438,1.822
				c0.073,0.045,0.094,0.141,0.048,0.213C333.73,54.814,333.679,54.839,333.628,54.839z"/>
			<path style="fill:#97B9C1;" d="M332.688,56.088c-0.036,0-0.073-0.012-0.102-0.038c-0.013-0.011-1.31-1.131-2.637-1.571
				c-0.081-0.027-0.125-0.115-0.099-0.196c0.028-0.081,0.116-0.124,0.196-0.099c1.388,0.46,2.689,1.584,2.744,1.632
				c0.064,0.056,0.071,0.154,0.015,0.219C332.774,56.07,332.731,56.088,332.688,56.088z"/>
			<path style="fill:#97B9C1;" d="M335.167,52.339c-0.052,0-0.102-0.026-0.132-0.073c-0.116-0.187-0.142-0.429-0.07-0.636
				c-0.44-0.158-0.82-0.302-1.176-0.511c-0.441-0.259-0.767-0.578-0.967-0.947c-0.109-0.199-0.154-0.379-0.137-0.548
				c0.027-0.275,0.236-0.533,0.531-0.658c0.262-0.109,0.541-0.109,0.78-0.095c0.716,0.043,1.407,0.238,2,0.566
				c0.075,0.042,0.102,0.135,0.06,0.211c-0.042,0.074-0.136,0.101-0.211,0.06c-0.552-0.306-1.198-0.488-1.868-0.528
				c-0.204-0.014-0.439-0.014-0.642,0.071c-0.192,0.081-0.327,0.239-0.343,0.403c-0.011,0.105,0.022,0.226,0.101,0.369
				c0.173,0.319,0.459,0.598,0.852,0.828c0.346,0.203,0.727,0.345,1.153,0.496c0.045,0.017,0.134,0.05,0.175,0.145
				c0.039,0.089,0.007,0.173-0.01,0.218c-0.05,0.132-0.036,0.279,0.034,0.392c0.045,0.073,0.022,0.169-0.05,0.213
				C335.223,52.332,335.194,52.339,335.167,52.339z"/>
			<path style="fill:#97B9C1;" d="M367.893,46.367v1.4c3.551-0.474,6.364-4.708,6.364-4.708
				C371.306,46.426,367.893,46.367,367.893,46.367z"/>
			<g>
				<g>
					<path style="fill:#97B9C1;" d="M302.147,230.309c-0.312-0.007-2.886,0.794-2.886,0.794l0.278,4.928h2.608V230.309z"/>
					<path style="fill:#B3D3DB;" d="M302.147,230.309c0,0-1.561,2.254,0,5.722h7.629
						C309.776,236.031,307.175,232.563,302.147,230.309z"/>
				</g>
				<g>
					<path style="fill:#97B9C1;" d="M422.261,226.943c0.312-0.007,2.886,0.794,2.886,0.794l-0.278,4.928h-2.608V226.943z"/>
					<path style="fill:#B3D3DB;" d="M422.261,226.943c0,0,1.561,2.254,0,5.722h-7.629
						C414.632,232.665,417.233,229.197,422.261,226.943z"/>
				</g>
				<g>
					<polygon style="fill:#97B9C1;" points="339.669,226.934 344.39,227.434 346.306,229.767 346.306,233.684 343.89,233.684
						"/>
					<polygon style="fill:#B3D3DB;" points="328.64,233.684 332.973,229.017 337.056,230.017 339.669,226.934 343.89,229.934
						343.89,233.684 					"/>
				</g>
			</g>
		</g>
	</g>
</g>
</svg>
